<?xml version="1.0" encoding="utf-8"?>
<!-- Generator: Adobe Illustrator 23.1.1, SVG Export Plug-In . SVG Version: 6.00 Build 0)  -->
<svg version="1.1" xmlns="http://www.w3.org/2000/svg" xmlns:xlink="http://www.w3.org/1999/xlink" x="0px" y="0px"
	 viewBox="0 0 85 85" style="enable-background:new 0 0 85 85;" xml:space="preserve">
<style type="text/css">
	.st0{fill:none;stroke:#02232F;stroke-width:2.7004;stroke-linecap:round;stroke-linejoin:round;stroke-miterlimit:10;}
	.st1{fill:none;stroke:#02232F;stroke-width:1.8903;stroke-linecap:round;stroke-linejoin:round;stroke-miterlimit:10;}
	.st2{fill:none;stroke:#02232F;stroke-width:1.8903;stroke-linejoin:round;stroke-miterlimit:10;stroke-dasharray:2.7004,2.7004;}
	.st3{fill:none;stroke:#02232F;stroke-width:1.8903;stroke-linejoin:round;}
	.st4{fill:none;stroke:#02232F;stroke-width:1.8903;stroke-linejoin:round;stroke-dasharray:2.5458,2.5458;}
	.st5{fill:none;stroke:#02232F;stroke-width:1.9031;stroke-linejoin:round;}
	.st6{fill:none;stroke:#02232F;stroke-width:1.9031;stroke-linejoin:round;stroke-dasharray:2.7175,2.7175;}
	.st7{fill:none;stroke:#02232F;stroke-width:1.9031;stroke-linejoin:round;stroke-dasharray:2.7165,2.7165;}
	.st8{fill:none;stroke:#02232F;stroke-width:2.7187;stroke-linecap:round;stroke-linejoin:round;stroke-miterlimit:10;}
	.st9{fill:none;stroke:#02232F;stroke-width:1.9031;stroke-linecap:round;stroke-linejoin:round;stroke-miterlimit:10;}
	.st10{fill:none;stroke:#02232F;stroke-width:1.9031;stroke-linejoin:round;stroke-dasharray:2.5631,2.5631;}
	.st11{fill:none;stroke:#02232F;stroke-width:2.707;stroke-linecap:round;stroke-linejoin:round;stroke-miterlimit:10;}
	.st12{fill:none;stroke:#02232F;stroke-width:1.8949;stroke-linecap:round;stroke-linejoin:round;stroke-miterlimit:10;}
	.st13{fill:none;stroke:#02232F;stroke-width:2.6929;stroke-linecap:round;stroke-linejoin:round;stroke-miterlimit:10;}
	.st14{fill:#02232F;}
	.st15{fill:none;stroke:#02232F;stroke-width:1.885;stroke-linecap:round;stroke-linejoin:round;stroke-miterlimit:10;}
	.st16{fill:none;stroke:#02232F;stroke-width:2.7084;stroke-linecap:round;stroke-linejoin:round;stroke-miterlimit:10;}
	.st17{fill:none;stroke:#02232F;stroke-width:2.0313;stroke-linecap:round;stroke-linejoin:round;stroke-miterlimit:10;}
	.st18{fill:none;stroke:#02232F;stroke-width:1.8959;stroke-linejoin:round;}
	.st19{fill:none;stroke:#02232F;stroke-width:1.8959;stroke-linejoin:round;stroke-dasharray:2.6386,2.6386;}
	.st20{fill:none;stroke:#02232F;stroke-width:1.8959;stroke-linecap:round;stroke-linejoin:round;stroke-miterlimit:10;}
	.st21{fill:none;stroke:#02232F;stroke-width:1.8959;stroke-linejoin:round;stroke-dasharray:2.8231,2.8231;}
	.st22{fill:none;stroke:#02232F;stroke-width:1.3542;stroke-linecap:round;stroke-linejoin:round;stroke-miterlimit:10;}
	.st23{fill:none;stroke:#02232F;stroke-width:1.8807;stroke-linecap:round;stroke-linejoin:round;stroke-miterlimit:10;}
	.st24{fill:none;stroke:#02232F;stroke-width:1.3162;stroke-linecap:round;stroke-linejoin:round;stroke-miterlimit:10;}
	.st25{fill:none;stroke:#02232F;stroke-width:1.3162;stroke-linejoin:round;}
	.st26{fill:none;stroke:#02232F;stroke-width:1.3162;stroke-linejoin:round;stroke-dasharray:1.2572,1.2572;}
	.st27{fill:none;stroke:#02232F;stroke-width:1.3162;stroke-linejoin:round;stroke-dasharray:1.5097,1.5097;}
	.st28{fill:none;stroke:#02232F;stroke-width:1.3162;stroke-linejoin:round;stroke-dasharray:1.4077,1.4077;}
	.st29{fill:none;stroke:#02232F;stroke-width:2.6779;stroke-linecap:round;stroke-linejoin:round;stroke-miterlimit:10;}
	.st30{fill:none;stroke:#02232F;stroke-width:1.8745;stroke-linecap:round;stroke-linejoin:round;stroke-miterlimit:10;}
	.st31{fill:none;stroke:#02232F;stroke-width:1.9131;stroke-linecap:round;stroke-linejoin:round;stroke-miterlimit:10;}
	.st32{fill:none;stroke:#02232F;stroke-width:2.733;stroke-linecap:round;stroke-linejoin:round;stroke-miterlimit:10;}
	.st33{fill:none;stroke:#02232F;stroke-width:1.9008;stroke-linejoin:round;}
	.st34{fill:none;stroke:#02232F;stroke-width:1.9008;stroke-linejoin:round;stroke-dasharray:2.7798,2.7798;}
	.st35{fill:none;stroke:#02232F;stroke-width:1.9008;stroke-linejoin:round;stroke-dasharray:2.7789,2.7789;}
	.st36{fill:none;stroke:#02232F;stroke-width:2.7154;stroke-linecap:round;stroke-linejoin:round;stroke-miterlimit:10;}
	.st37{fill:none;stroke:#02232F;stroke-width:1.9008;stroke-linecap:round;stroke-linejoin:round;stroke-miterlimit:10;}
	.st38{fill:none;stroke:#02232F;stroke-width:1.9385;stroke-linecap:round;stroke-linejoin:round;stroke-miterlimit:10;}
	.st39{fill:none;stroke:#02232F;stroke-width:1.8745;stroke-linejoin:round;}
	.st40{fill:none;stroke:#02232F;stroke-width:1.8745;stroke-linejoin:round;stroke-dasharray:2.8635,2.8635;}
	.st41{fill:none;stroke:#02232F;stroke-width:1.8745;stroke-linejoin:round;stroke-dasharray:2.84,2.84;}
	.st42{fill:none;stroke:#02232F;stroke-width:1.3389;stroke-linecap:round;stroke-linejoin:round;stroke-miterlimit:10;}
	.st43{fill:none;stroke:#02232F;stroke-width:2.7239;stroke-linecap:round;stroke-linejoin:round;stroke-miterlimit:10;}
	.st44{fill:none;stroke:#02232F;stroke-width:1.9067;stroke-linejoin:round;stroke-miterlimit:10;stroke-dasharray:2.7239,2.7239;}
	.st45{fill:none;stroke:#02232F;stroke-width:1.9067;stroke-linecap:round;stroke-linejoin:round;stroke-miterlimit:10;}
	.st46{fill:none;stroke:#02232F;stroke-width:2.7054;stroke-linecap:round;stroke-linejoin:round;stroke-miterlimit:10;}
	.st47{fill:none;stroke:#02232F;stroke-width:1.8938;stroke-linecap:round;stroke-linejoin:round;stroke-miterlimit:10;}
	.st48{fill:none;stroke:#02232F;stroke-width:1.8938;stroke-linejoin:round;}
	.st49{fill:none;stroke:#02232F;stroke-width:1.8938;stroke-linejoin:round;stroke-dasharray:2.5653,2.5653;}
	.st50{fill:none;stroke:#02232F;stroke-width:1.8938;stroke-linejoin:round;stroke-dasharray:2.9396,2.9396;}
	.st51{fill:none;stroke:#02232F;stroke-width:1.3527;stroke-linecap:round;stroke-linejoin:round;stroke-miterlimit:10;}
	.st52{fill:none;stroke:#02232F;stroke-width:2.7003;stroke-linecap:round;stroke-linejoin:round;stroke-miterlimit:10;}
	.st53{fill:none;stroke:#02232F;stroke-width:1.8902;stroke-linecap:round;stroke-linejoin:round;stroke-miterlimit:10;}
	.st54{fill:none;stroke:#02232F;stroke-width:1.8902;stroke-linejoin:round;stroke-miterlimit:10;stroke-dasharray:2.7003,2.7003;}
	.st55{fill:none;stroke:#02232F;stroke-width:1.885;stroke-linejoin:round;}
	.st56{fill:none;stroke:#02232F;stroke-width:1.885;stroke-linejoin:round;stroke-dasharray:2.6186,2.6186;}
	.st57{fill:none;stroke:#02232F;stroke-width:1.885;stroke-linejoin:round;stroke-dasharray:2.6721,2.6721;}
	.st58{fill:none;stroke:#02232F;stroke-width:1.885;stroke-linejoin:round;stroke-dasharray:2.6143,2.6143;}
	.st59{fill:none;stroke:#02232F;stroke-width:1.885;stroke-linejoin:round;stroke-dasharray:2.6364,2.6364;}
	.st60{fill:none;stroke:#02232F;stroke-width:1.8745;stroke-linejoin:round;stroke-miterlimit:10;stroke-dasharray:2.6779,2.6779;}
	.st61{fill:none;stroke:#231F20;stroke-width:1.8991;stroke-linejoin:round;stroke-miterlimit:10;}
	.st62{fill:none;stroke:#02232F;stroke-width:1.9031;stroke-linejoin:round;stroke-dasharray:2.8105,2.8105;}
	.st63{fill:none;stroke:#02232F;stroke-width:1.9031;stroke-linejoin:round;stroke-dasharray:2.897,2.897;}
	.st64{fill:none;stroke:#02232F;stroke-width:1.9031;stroke-linejoin:round;stroke-miterlimit:10;stroke-dasharray:2.7187,2.7187;}
	.st65{fill:none;stroke:#02232F;stroke-width:1.8949;stroke-linejoin:round;}
	.st66{fill:none;stroke:#02232F;stroke-width:1.8949;stroke-linejoin:round;stroke-dasharray:2.863,2.863;}
	.st67{fill:none;stroke:#02232F;stroke-width:1.8949;stroke-linejoin:round;stroke-dasharray:2.3581,2.3581;}
	.st68{fill:none;stroke:#02232F;stroke-width:1.8949;stroke-linejoin:round;stroke-dasharray:2.836,2.836;}
	.st69{fill:none;stroke:#02232F;stroke-width:1.8949;stroke-linejoin:round;stroke-dasharray:2.9416,2.9416;}
	.st70{fill:none;stroke:#02232F;stroke-width:1.8949;stroke-linejoin:round;stroke-dasharray:2.7234,2.7234;}
	.st71{fill:none;stroke:#02232F;stroke-width:1.8949;stroke-linejoin:round;stroke-dasharray:2.1485,2.1485;}
	.st72{fill:none;stroke:#02232F;stroke-width:1.9131;stroke-linejoin:round;stroke-miterlimit:10;stroke-dasharray:2.733,2.733;}
	.st73{fill:none;stroke:#02232F;stroke-width:1.3665;stroke-linecap:round;stroke-linejoin:round;stroke-miterlimit:10;}
	.st74{fill:none;stroke:#02232F;stroke-width:1.9067;stroke-linejoin:round;}
	.st75{fill:none;stroke:#02232F;stroke-width:1.9067;stroke-linejoin:round;stroke-dasharray:3.4115,3.4115;}
	.st76{fill:none;stroke:#02232F;stroke-width:1.9067;stroke-linejoin:round;stroke-dasharray:2.6477,2.6477;}
	.st77{fill:none;stroke:#02232F;stroke-width:1.9067;stroke-linejoin:round;stroke-dasharray:2.6293,2.6293;}
	.st78{fill:none;stroke:#02232F;stroke-width:1.9067;stroke-linejoin:round;stroke-dasharray:2.3247,2.3247;}
	.st79{display:none;opacity:0.24;fill:none;stroke:#231F20;stroke-miterlimit:10;}
	.st80{fill:none;stroke:#02232F;stroke-linecap:round;stroke-linejoin:round;stroke-miterlimit:10;}
	.st81{fill:none;stroke:#FFFFFF;stroke-miterlimit:10;}
	.st82{fill:none;stroke:#EB594D;stroke-miterlimit:10;}
	.st83{fill:#EB594D;}
	.st84{fill:none;stroke:#02232F;stroke-miterlimit:10;}
</style>
<g id="Warstwa_1">
</g>
<g id="piktogram">
</g>
<g id="Warstwa_3">
	<rect x="0" class="st14" width="85" height="85"/>
	<g>
		<g>
			<path class="st83" d="M23.5,41.6l-0.2-0.4c-0.1-0.2-1.9-5.1,0.3-9.3c1.3-2.4,3.7-4.1,7.1-4.9l0.4-0.1l0.2,0.4
				c0.1,0.2,1.9,4.8-0.1,8.9c-1.3,2.5-3.7,4.3-7.3,5.3L23.5,41.6z M30.5,28.1c-2.9,0.8-4.9,2.2-6,4.2c-1.7,3.1-0.8,6.8-0.4,8.1
				c3-0.9,5.1-2.5,6.2-4.6C31.8,32.7,30.9,29.3,30.5,28.1z"/>
		</g>
		<g>
			<path class="st83" d="M19.3,34.2c-0.2,0-0.3,0-0.5-0.1c-2.4-0.5-4.3-1.7-4.4-1.8l-0.4-0.2l0.2-0.4c4.6-9.6,13.1-6,13.2-6l1,0.4
				l-0.9,0.5c-3.1,1.6-5.1,3.6-6.1,6.1C21.1,33.7,20.2,34.2,19.3,34.2z M15.4,31.8c0.7,0.4,2,1,3.7,1.4c0.6,0.1,1.2-0.2,1.4-0.8
				c1-2.4,2.8-4.4,5.6-6C23.9,25.8,18.7,25.3,15.4,31.8z"/>
		</g>
		<g>
			<path class="st83" d="M46.4,42.5c-0.5,0-0.9-0.1-1.3-0.4L33.9,35l0.1-0.3c0.8-3.5-0.8-7.3-0.8-7.3l-0.3-0.7l27.3-0.1
				c1.4,0,2.5,1.1,2.5,2.5v2.4c0,0.9-0.4,1.6-1.2,2.1l-13.8,8.6C47.3,42.4,46.8,42.5,46.4,42.5z M35,34.5l10.6,6.8
				c0.5,0.3,1.1,0.3,1.6,0l13.8-8.6c0.4-0.3,0.7-0.7,0.7-1.3V29c0-0.8-0.7-1.5-1.5-1.5l-25.8,0.1C34.8,28.9,35.5,31.7,35,34.5z"/>
		</g>
		<g>
			<path class="st83" d="M46.5,59.1c-4.2,0-8.1-1.7-11.2-4.7c-3.2-3.2-5.1-7.6-5.1-12v-2.3l0.2-0.2c1-0.8,2-1.8,2.5-2.6l0.3-0.4
				L45.8,45c0.4,0.3,1,0.3,1.5,0l15.5-9.6l-0.1,7.8c-0.1,8.8-7.1,15.8-16,15.9C46.6,59.1,46.5,59.1,46.5,59.1z M31.2,40.6v1.8
				c0,4.2,1.7,8.3,4.8,11.3c2.9,2.9,6.7,4.5,10.7,4.4c8.3-0.1,14.9-6.7,15-14.9l0.1-6l-13.9,8.7c-0.8,0.5-1.8,0.5-2.5,0h0l-11.8-7.6
				C32.9,39,32.1,39.9,31.2,40.6z"/>
		</g>
	</g>
</g>
</svg>
